# xmcd
#
# Track frame offsets:
#	150
#	17185
#	32740
#	49675
#	69395
#	85372
#	100807
#	119510
#	135580
#	154387
#	173922
#	201597
#	230707
#	244040
#	256750
#	274875
#	291327
#	313420
#
# Disc length: 4353
#
# Revision: 3
# Processed by: cddbd v1.5.1PL0 Copyright (c) Steve Scherf et al.
# Submitted via: FreeRIP 2.70 
# Normalized: r2:TDELIM( - )
#
DISCID=1210ff12
DTITLE=Boot Scottin' 7
DYEAR=1900
DGENRE=Country
TTITLE0=Garth Brooks - The Dance
TTITLE1=LeAnn Rimes - The Light In Your Eyes
TTITLE2=Charlie Daniels Band - Drinkin' My Baby Goodbye
TTITLE3=Tim McGraw - Indian Outlaw [Dance Mix]
TTITLE4=Mavericks - Missing You
TTITLE5=Confederate Railroad - Queen Of Memphis
TTITLE6=Asleep At The Wheel - San Antonio Rose
TTITLE7=Reba McEntire - I'd Rather Ride Around With You
TTITLE8=Alan Jackson - Chattahoochee [Club Mix 2]
TTITLE9=Tracy Byrd - The Keeper Of The Stars [New Single Version]
TTITLE10=Brooks and Dunn - Boot Scootin' Boogie [Remix]
TTITLE11=Brooks and Dunn - Boot Scootin' Boogie [Club Mix]
TTITLE12=George Strait - Amarillo By Morning
TTITLE13=Clint Black - The Gulf Of Mexico
TTITLE14=Toby Keith - We Were In Love [Radio Edit]
TTITLE15=Billy Joe Royal - Boardwalk Angel
TTITLE16=Shania Twain - Whose Bed Have Your Boots Been Under [Dance Mix]
TTITLE17=Ty England - Kick Back
EXTD=
EXTT0=
EXTT1=
EXTT2=
EXTT3=
EXTT4=
EXTT5=
EXTT6=
EXTT7=
EXTT8=
EXTT9=
EXTT10=
EXTT11=
EXTT12=
EXTT13=
EXTT14=
EXTT15=
EXTT16=
EXTT17=
PLAYORDER=
